HIERARCHY
ROOT SpineBase
{
  OFFSET 0.000000 0.000000 0.000000
  CHANNELS 6 Xposition Yposition Zposition Zrotation Xrotation Yrotation
  JOINT SpineMid
  {
    OFFSET 0.000000 29.577876 0.000000
    CHANNELS 3 Zrotation Xrotation Yrotation
    JOINT SpineShoulder
    {
      OFFSET 0.046741 21.998713 -0.652595
      CHANNELS 3 Zrotation Xrotation Yrotation
      JOINT Neck
      {
        OFFSET 0.001184 7.291227 -0.518305
        CHANNELS 3 Zrotation Xrotation Yrotation
        JOINT Head
        {
          OFFSET 3.321977 12.954644 -0.397291
          CHANNELS 3 Zrotation Xrotation Yrotation
          End Site
          {
            OFFSET 0 0 0
          }
        }
      }
      JOINT ShoulderLeft
      {
        OFFSET -13.875769 -2.975573 -7.673202
        CHANNELS 3 Zrotation Xrotation Yrotation
        JOINT ElbowLeft
        {
          OFFSET -4.851290 -25.810156 -0.902970
          CHANNELS 3 Zrotation Xrotation Yrotation
          JOINT WristLeft
          {
            OFFSET 1.548357 -21.063921 -3.600368
            CHANNELS 3 Zrotation Xrotation Yrotation
            JOINT HandLeft
            {
              OFFSET 1.250182 -3.487163 0.180948
              CHANNELS 3 Zrotation Xrotation Yrotation
              JOINT HandTipLeft
              {
                OFFSET 0.218473 -7.066664 -0.603238
                CHANNELS 3 Zrotation Xrotation Yrotation
                End Site
                {
                  OFFSET 0 0 0
                }
              }
              JOINT ThumbLeft
              {
                OFFSET 3.287195 0.365134 -2.451934
                CHANNELS 3 Zrotation Xrotation Yrotation
                End Site
                {
                  OFFSET 0 0 0
                }
              }
            }
          }
        }
      }
      JOINT ShoulderRight
      {
        OFFSET 15.191224 -4.213695 3.764245
        CHANNELS 3 Zrotation Xrotation Yrotation
        JOINT ElbowRight
        {
          OFFSET 4.887491 -24.577878 2.938683
          CHANNELS 3 Zrotation Xrotation Yrotation
          JOINT WristRight
          {
            OFFSET 4.806471 -19.277531 -8.768498
            CHANNELS 3 Zrotation Xrotation Yrotation
            JOINT HandRight
            {
              OFFSET -0.609268 -4.845562 -2.277303
              CHANNELS 3 Zrotation Xrotation Yrotation
              JOINT HandTipRight
              {
                OFFSET 0.031622 -6.385502 -0.918981
                CHANNELS 3 Zrotation Xrotation Yrotation
                End Site
                {
                  OFFSET 0 0 0
                }
              }
              JOINT ThumbRight
              {
                OFFSET -2.078403 0.530880 -1.336916
                CHANNELS 3 Zrotation Xrotation Yrotation
                End Site
                {
                  OFFSET 0 0 0
                }
              }
            }
          }
        }
      }
    }
  }
  JOINT HipLeft
  {
    OFFSET -7.312218 1.709327 -5.701662
    CHANNELS 3 Zrotation Xrotation Yrotation
    JOINT KneeLeft
    {
      OFFSET -6.100316 -28.311417 -2.918040
      CHANNELS 3 Zrotation Xrotation Yrotation
      JOINT AnkleLeft
      {
        OFFSET -5.502539 -33.886876 4.524796
        CHANNELS 3 Zrotation Xrotation Yrotation
        JOINT FootLeft
        {
          OFFSET -1.734108 -8.280581 -4.800893
          CHANNELS 3 Zrotation Xrotation Yrotation
          End Site
          {
            OFFSET 0 0 0
          }
        }
      }
    }
  }
  JOINT HipRight
  {
    OFFSET 6.583212 -0.139645 -0.805634
    CHANNELS 3 Zrotation Xrotation Yrotation
    JOINT KneeRight
    {
      OFFSET -1.754663 -29.532927 10.670028
      CHANNELS 3 Zrotation Xrotation Yrotation
      JOINT AnkleRight
      {
        OFFSET -3.378114 -32.491901 5.772394
        CHANNELS 3 Zrotation Xrotation Yrotation
        JOINT FootRight
        {
          OFFSET 5.437865 -5.934888 -2.231969
          CHANNELS 3 Zrotation Xrotation Yrotation
          End Site
          {
            OFFSET 0 0 0
          }
        }
      }
    }
  }
}
MOTION
Frames: 7
Frame Time: 0.033333
35.718131 69.364086 356.168950 3.330934 2.290562 -11.755028 -0.146361 1.826825 11.739297 0.318175 -0.433009 0.204788 3.181148 4.306444 -2.316344 0.000000 0.000000 0.000000 -5.936541 7.562818 -2.354929 16.371952 -14.070198 2.748509 2.139279 31.300124 8.760775 -5.158790 -20.867254 -9.983185 0.000000 0.000000 0.000000 0.000000 0.000000 0.000000 -9.429377 0.757225 -0.334799 -7.062957 -10.733126 2.614627 -11.105681 2.853028 8.600662 23.083112 4.843745 -11.233569 0.000000 0.000000 0.000000 0.000000 0.000000 0.000000 -3.814411 6.536049 9.526034 1.377760 -10.914076 2.911564 23.181222 42.218799 -28.457627 0.000000 0.000000 0.000000 4.240984 3.463918 14.311083 -6.686843 -12.912082 -1.548938 -4.795631 2.450628 -5.536636 0.000000 0.000000 0.000000
36.651668 69.195726 356.296991 2.003560 5.469034 -12.968204 -0.466466 1.982812 12.887404 0.362825 -0.385795 0.155361 3.144719 6.049590 -3.542682 0.000000 0.000000 0.000000 -7.719772 6.951177 -2.749590 26.751109 -20.688516 5.419781 -5.081463 41.221189 11.542589 -5.277811 -38.850552 -10.120496 0.000000 0.000000 0.000000 0.000000 0.000000 0.000000 -9.288439 1.348081 0.191376 -6.521078 -11.250166 2.797595 -3.864707 8.160554 3.314874 14.266808 3.669757 -5.898586 0.000000 0.000000 0.000000 0.000000 0.000000 0.000000 -2.741517 3.695721 10.711171 1.498669 -11.193882 2.752370 24.998580 41.947808 -29.353483 0.000000 0.000000 0.000000 6.240585 -0.214297 15.925697 -6.331534 -13.890117 -1.204686 -1.561649 9.828860 -2.110490 0.000000 0.000000 0.000000
37.825670 68.836549 356.608214 0.348256 9.096155 -15.555139 -0.769994 1.819400 15.492477 0.297490 -0.203259 0.076516 2.919887 7.470964 -4.656773 0.000000 0.000000 0.000000 -7.371015 4.788131 -3.095936 32.877619 -21.854810 7.139113 -9.234614 47.945606 14.243862 -7.080531 -51.484832 -11.485027 0.000000 0.000000 0.000000 0.000000 0.000000 0.000000 -9.482624 1.753992 0.651992 -4.384658 -10.240179 3.551050 -1.679704 11.750930 0.255737 10.053054 -0.563489 -3.256699 0.000000 0.000000 0.000000 0.000000 0.000000 0.000000 -1.156786 -0.157210 13.538366 1.411671 -10.419585 2.261089 27.771451 40.876253 -30.518036 0.000000 0.000000 0.000000 8.497574 -4.175543 18.957013 -5.353167 -14.359614 -0.699256 1.676880 20.434747 3.667559 0.000000 0.000000 0.000000
39.118710 68.343982 357.142957 -1.409682 12.420547 -20.623124 -0.932815 1.358058 20.681219 0.123622 0.101614 -0.021597 2.460400 9.391644 -5.765626 0.000000 0.000000 0.000000 -8.658506 4.931113 -3.677990 40.158298 -20.374261 9.640086 -12.387202 47.794119 15.685395 -6.423881 -59.391198 -10.652738 0.000000 0.000000 0.000000 0.000000 0.000000 0.000000 -10.188830 2.042735 0.911759 -0.949832 -7.206244 5.163562 -0.131921 12.606354 -2.931506 6.875087 -3.331293 -1.451869 0.000000 0.000000 0.000000 0.000000 0.000000 0.000000 1.201183 -3.783107 19.102182 0.717280 -9.253416 1.580208 31.058756 39.615147 -31.644232 0.000000 0.000000 0.000000 11.003780 -6.550154 24.373441 -4.258760 -15.065739 -0.189283 3.043050 31.910158 10.927335 0.000000 0.000000 0.000000
40.458252 67.760254 357.986594 -3.476750 15.524580 -24.675961 -0.842244 0.792408 24.979440 0.137425 0.247770 -0.090561 1.464254 11.296591 -6.722007 0.000000 0.000000 0.000000 -10.500086 6.891715 -4.333620 45.390815 -12.489776 11.381048 -12.697493 39.180380 15.399115 -10.071331 -66.868331 -12.332488 0.000000 0.000000 0.000000 0.000000 0.000000 0.000000 -11.012636 1.819304 0.882647 2.688552 -3.717910 7.013047 -0.865092 11.554647 -4.812119 6.387216 -3.305649 -0.647097 0.000000 0.000000 0.000000 0.000000 0.000000 0.000000 4.084313 -6.327777 23.812502 -0.289169 -7.972936 0.854857 34.919515 37.513958 -32.569723 0.000000 0.000000 0.000000 13.861207 -8.369557 28.826831 -3.327037 -14.910745 0.154671 1.380718 40.376848 18.876912 0.000000 0.000000 0.000000
41.535524 67.352307 358.725996 -5.582207 18.301479 -30.349071 -0.482559 -0.073596 30.968830 0.238306 0.140082 -0.148376 1.476533 13.488384 -7.397548 0.000000 0.000000 0.000000 -12.096043 10.057599 -4.721102 35.004427 23.614466 9.879511 -3.868708 12.311872 19.947330 -42.037327 -79.293899 -40.445759 0.000000 0.000000 0.000000 0.000000 0.000000 0.000000 -11.536926 0.925065 0.542795 5.222258 -0.443914 8.820928 1.033922 10.701831 -6.977059 6.785178 -0.693852 0.777774 0.000000 0.000000 0.000000 0.000000 0.000000 0.000000 8.334433 -8.334506 30.558340 -1.847557 -5.650492 0.043233 38.712056 35.023304 -33.163942 0.000000 0.000000 0.000000 17.237265 -8.461760 34.986452 -3.337582 -14.094021 0.078389 -2.181827 45.148940 27.085178 0.000000 0.000000 0.000000
42.475458 66.701803 359.949232 -7.420819 19.852637 -33.943360 -0.664679 -0.231160 34.856694 0.486874 -0.159352 -0.181163 -0.587518 15.554361 -8.000002 0.000000 0.000000 0.000000 -15.585264 14.048460 -4.879703 -43.185166 49.162437 48.411714 25.282066 -12.412902 47.879618 -16.879309 38.880305 -60.452341 0.000000 0.000000 0.000000 0.000000 0.000000 0.000000 -12.247716 -0.407277 -0.133258 7.343529 1.525766 10.249318 7.852538 8.980776 -9.840085 2.320965 1.718873 2.452321 0.000000 0.000000 0.000000 0.000000 0.000000 0.000000 10.871591 -8.152586 34.749117 -3.093645 -4.516961 -0.485015 42.484812 32.378185 -33.644148 0.000000 0.000000 0.000000 19.718575 -7.228794 38.974111 -3.881401 -13.581405 -0.175145 -4.614341 47.065785 32.224474 0.000000 0.000000 0.000000
